<?xml version="1.0" encoding="UTF-8" standalone="no"?>
<!-- Created with Inkscape (http://www.inkscape.org/) -->

<svg
   width="80mm"
   height="60mm"
   viewBox="0 0 80 60"
   version="1.1"
   id="svg1"
   inkscape:version="1.4 (e7c3feb100, 2024-10-09)"
   sodipodi:docname="cow-light.svg"
   xmlns:inkscape="http://www.inkscape.org/namespaces/inkscape"
   xmlns:sodipodi="http://sodipodi.sourceforge.net/DTD/sodipodi-0.dtd"
   xmlns="http://www.w3.org/2000/svg"
   xmlns:svg="http://www.w3.org/2000/svg">
  <sodipodi:namedview
     id="namedview1"
     pagecolor="#ffffff"
     bordercolor="#000000"
     borderopacity="0.25"
     inkscape:showpageshadow="2"
     inkscape:pageopacity="0.0"
     inkscape:pagecheckerboard="0"
     inkscape:deskcolor="#d1d1d1"
     inkscape:document-units="mm"
     inkscape:zoom="1.3344978"
     inkscape:cx="156.9879"
     inkscape:cy="184.71369"
     inkscape:window-width="1598"
     inkscape:window-height="970"
     inkscape:window-x="0"
     inkscape:window-y="0"
     inkscape:window-maximized="1"
     inkscape:current-layer="layer1" />
  <defs
     id="defs1">
    <rect
       x="-104.91373"
       y="-61.464611"
       width="400.57971"
       height="254.33633"
       id="rect2" />
    <rect
       x="19.075224"
       y="19.075224"
       width="316.86066"
       height="241.61951"
       id="rect1" />
  </defs>
  <g
     inkscape:label="Layer 1"
     inkscape:groupmode="layer"
     id="layer1">
    <path
       style="font-size:16px;font-family:'Fira Code';-inkscape-font-specification:'Fira Code';font-variant-ligatures:discretionary-ligatures;white-space:pre;fill:#1a1a1a;stroke:#1a1a1a;stroke-width:1.00157"
       d="m 29.742846,36.612636 v -1.206153 h 9.189743 v 1.206153 z m 8.861545,0 V 35.406483 H 48.77875 v 1.206153 z m 9.846161,0 v -1.206153 h 10.174359 v 1.206153 z m 9.846161,0 v -1.206153 h 10.174359 v 1.206153 z m 9.846161,0 v -1.206153 h 10.174359 v 1.206153 z m 9.846161,0 v -1.206153 h 10.174359 v 1.206153 z m 9.846161,0 v -1.206153 h 10.174359 v 1.206153 z m 9.84616,0 v -1.206153 h 10.174364 v 1.206153 z m 9.846164,0 v -1.206153 h 10.17436 v 1.206153 z m 9.84616,0 v -1.206153 h 10.17436 v 1.206153 z m 9.84616,0 v -1.206153 h 10.17436 v 1.206153 z m 9.84616,0 v -1.206153 h 10.17436 v 1.206153 z m 9.84616,0 v -1.206153 h 10.17436 v 1.206153 z m 9.84616,0 v -1.206153 h 10.17436 v 1.206153 z m 9.84616,0 v -1.206153 h 10.17436 v 1.206153 z m 9.84616,0 v -1.206153 h 9.18975 v 1.206153 z m -149.620622,7.831849 0.664615,1.058462 -5.79282,3.55282 5.79282,3.585641 -0.738461,1.009231 -6.235898,-3.897436 v -1.411282 z m 20.094373,-1.550769 v 1.140513 h -2.510769 v 9.017435 h 2.510769 v 1.140513 H 40.45875 v -1.140513 h 2.510769 V 44.034229 H 40.45875 v -1.140513 z m 14.564117,2.658461 v 6.121026 q 0,0.853333 0.35282,1.230769 0.352821,0.377436 1.099487,0.377436 0.713847,0 1.345641,-0.402051 0.64,-0.410257 0.992821,-0.968205 v -6.358975 h 1.378462 v 8.64 h -1.173334 l -0.114872,-1.165128 q -0.508718,0.65641 -1.263589,1.009231 -0.746667,0.344615 -1.501539,0.344615 -1.255384,0 -1.878974,-0.664615 -0.615385,-0.672821 -0.615385,-1.878975 v -6.285128 z m 11.405135,7.688205 q 1.001026,0 1.575385,-0.36923 0.574359,-0.369231 0.574359,-1.001026 0,-0.385641 -0.147693,-0.672821 -0.139487,-0.287179 -0.582564,-0.516923 -0.443077,-0.237948 -1.362051,-0.467692 -0.894359,-0.221538 -1.558974,-0.508718 -0.656411,-0.295384 -1.025642,-0.763077 -0.361025,-0.467692 -0.361025,-1.214359 0,-1.091282 0.910769,-1.723077 0.910769,-0.631795 2.371282,-0.631795 1.042051,0 1.813333,0.278975 0.779488,0.278974 1.321026,0.67282 l -0.607179,0.935385 q -0.484103,-0.33641 -1.083077,-0.549744 -0.59077,-0.221538 -1.427693,-0.221538 -1.017436,0 -1.444102,0.32 -0.426667,0.311795 -0.426667,0.812308 0,0.385641 0.205128,0.64 0.213334,0.246153 0.713847,0.443077 0.500512,0.196923 1.378461,0.434871 0.845128,0.229744 1.476923,0.541539 0.631795,0.311795 0.97641,0.820513 0.352821,0.500512 0.352821,1.304615 0,0.918974 -0.525128,1.493333 -0.525129,0.566154 -1.362052,0.828718 -0.828718,0.254359 -1.755897,0.254359 -1.173333,0 -2.002051,-0.33641 -0.820513,-0.344615 -1.378462,-0.828718 l 0.787692,-0.910769 q 0.508718,0.418461 1.165129,0.681025 0.664615,0.254359 1.427692,0.254359 z m 7.991802,-2.88 q 0.05744,1.501539 0.787692,2.19077 0.738462,0.681025 1.739487,0.681025 0.664616,0 1.197949,-0.196923 0.533333,-0.196923 1.107692,-0.582564 l 0.648206,0.910769 q -0.598975,0.475898 -1.378462,0.746667 -0.779487,0.270769 -1.591795,0.270769 -1.26359,0 -2.149743,-0.566154 -0.877949,-0.566153 -1.345641,-1.575384 -0.459488,-1.017436 -0.459488,-2.354872 0,-1.312821 0.459488,-2.330256 0.467692,-1.017436 1.31282,-1.6 0.853333,-0.582565 2.002051,-0.582565 1.632821,0 2.568205,1.132308 0.94359,1.132308 0.94359,3.101539 0,0.221538 -0.01641,0.418461 -0.0082,0.196923 -0.01641,0.33641 z m 2.346667,-3.85641 q -0.96,0 -1.608206,0.681026 -0.648205,0.681025 -0.730256,2.108718 h 4.504615 q -0.02461,-1.386667 -0.607179,-2.084103 -0.582564,-0.705641 -1.558974,-0.705641 z m 21.727198,4.808205 h -4.4718 l -0.902564,2.88 h -1.403077 l 3.675901,-11.298461 h 1.82154 l 3.67589,11.298461 h -1.49333 z m -4.10257,-1.181538 h 3.73333 l -1.85435,-6.038975 z m 8.56616,4.061538 v -1.058461 h 1.34564 v -6.523077 h -1.34564 v -1.058462 h 2.3959 l 0.25436,2.043077 q 0.50051,-1.066666 1.21436,-1.649231 0.71384,-0.582564 1.88718,-0.582564 0.36102,0 0.64,0.05744 0.28718,0.04923 0.58256,0.131282 l -0.19692,2.921026 h -1.13231 v -1.837949 q -0.0328,0 -0.0738,0 -1.98564,0 -2.84718,2.838975 v 3.659487 h 1.7559 v 1.058461 z m 13.66975,-1.001025 q 0.64821,0 1.20616,-0.205129 0.56615,-0.213333 1.04205,-0.549743 l 0.67282,0.902564 q -0.56616,0.484103 -1.36205,0.763077 -0.7959,0.278974 -1.55898,0.278974 -1.2882,0 -2.19897,-0.549743 -0.90257,-0.557949 -1.37846,-1.558975 -0.4759,-1.00923 -0.4759,-2.363077 0,-1.29641 0.4759,-2.322051 0.47589,-1.025641 1.38666,-1.61641 0.91077,-0.598975 2.20718,-0.598975 1.64923,0 2.88821,1.001026 l -0.67282,0.918974 q -1.12411,-0.771282 -2.2318,-0.771282 -1.11589,0 -1.83795,0.845129 -0.72205,0.836923 -0.72205,2.543589 0,1.731282 0.72205,2.51077 0.72206,0.771282 1.83795,0.771282 z m 7.31898,-11.249231 v 4.791795 q 0.50872,-0.672821 1.24718,-1.017436 0.74667,-0.344616 1.50975,-0.344616 1.26359,0 1.84615,0.672821 0.58256,0.67282 0.58256,1.870769 v 6.276923 h -1.37846 v -6.244102 q 0,-0.779487 -0.36102,-1.132308 -0.36103,-0.361026 -1.13231,-0.361026 -0.49231,0 -0.93538,0.221539 -0.44308,0.221538 -0.7959,0.549743 -0.35282,0.328206 -0.58257,0.672821 v 6.293333 h -1.37846 V 42.089613 Z m 19.69233,4.734359 q 0.46769,-0.62359 1.09128,-0.96 0.63179,-0.344616 1.37025,-0.344616 1.15693,0 1.87077,0.557949 0.71385,0.557949 1.04205,1.575385 0.32821,1.009231 0.32821,2.363077 0,1.304615 -0.39385,2.330256 -0.38564,1.017436 -1.14871,1.6 -0.76308,0.582564 -1.87898,0.582564 -1.50154,0 -2.35487,-1.083077 l -0.0985,0.894359 h -1.20616 V 42.073203 l 1.37847,-0.172308 z m 1.95282,6.588718 q 1.08307,0 1.66564,-0.836923 0.58256,-0.836923 0.58256,-2.568205 0,-3.380513 -2.03487,-3.380513 -0.72205,0 -1.2718,0.434872 -0.54974,0.426666 -0.89435,0.951794 V 52.1491 q 0.33641,0.516923 0.84512,0.820513 0.51693,0.295385 1.1077,0.295385 z m 13.37436,0.492307 q -0.44307,0.295385 -1.07487,0.459488 -0.63179,0.164102 -1.23897,0.164102 -1.39488,0 -2.14975,-0.730256 -0.75487,-0.730257 -0.75487,-1.878975 v -5.15282 h -1.98564 v -1.066667 h 1.98564 v -1.961025 l 1.37846,-0.164103 v 2.125128 h 2.98667 l -0.1641,1.066667 h -2.82257 v 5.13641 q 0,0.722051 0.37744,1.099487 0.38564,0.377436 1.27179,0.377436 0.48411,0 0.89436,-0.114872 0.41026,-0.114871 0.76308,-0.295384 z m 9.38668,0.434872 H 172.865 l -1.1159,-6.342564 -1.21436,6.342564 h -1.90359 l -1.57539,-8.64 h 1.41129 l 1.09948,7.786667 1.37847,-6.68718 h 1.63282 l 1.30461,6.68718 1.09949,-7.786667 h 1.34564 z m 13.7518,-9.747692 6.30975,3.897436 v 1.411282 l -6.22769,3.897436 -0.74667,-1.017436 5.79282,-3.577436 -5.79282,-3.569231 z M 30.96541,70.220949 V 69.00659 h 7.967179 v 1.214359 z m 7.638981,0 V 69.00659 H 48.77875 v 1.214359 z m 9.846161,0 V 69.00659 h 10.174359 v 1.214359 z m 9.846161,0 V 69.00659 h 10.174359 v 1.214359 z m 9.846161,0 V 69.00659 h 10.174359 v 1.214359 z m 9.846161,0 V 69.00659 h 10.174359 v 1.214359 z m 9.846161,0 V 69.00659 h 10.174359 v 1.214359 z m 9.84616,0 V 69.00659 h 10.174364 v 1.214359 z m 9.846164,0 V 69.00659 h 10.17436 v 1.214359 z m 9.84616,0 V 69.00659 h 10.17436 v 1.214359 z m 9.84616,0 V 69.00659 h 10.17436 v 1.214359 z m 9.84616,0 V 69.00659 h 10.17436 v 1.214359 z m 9.84616,0 V 69.00659 h 10.17436 v 1.214359 z m 9.84616,0 V 69.00659 h 10.17436 v 1.214359 z m 9.84616,0 V 69.00659 h 10.17436 v 1.214359 z m 17.81334,0 V 69.00659 h -7.96718 v 1.214359 z m -85.710823,12.344673 1.099488,-0.541539 7.023585,14.482052 -1.11589,0.492307 z m 44.061563,-1.033846 3.10154,5.128205 h -1.50154 l -2.23179,-3.889231 -2.22359,3.889231 h -1.47692 l 3.10153,-5.128205 z m 5.12822,16.754872 v -1.206154 h 9.18974 v 1.206154 z m 8.86154,0 v -1.206154 h 9.18975 v 1.206154 z m 15.54873,-16.754872 3.10154,5.128205 h -1.50154 l -2.2318,-3.889231 -2.22359,3.889231 h -1.47692 l 3.10154,-5.128205 z m -63.75389,21.591844 1.09949,-0.54154 7.02359,14.48205 -1.1159,0.49231 z m 32.16412,6.99897 q 0,1.71488 0.38564,2.96206 0.39385,1.23897 1.17334,2.26461 0.77948,1.02564 1.95282,2.05949 l -0.72205,0.75487 q -1.32924,-1.08308 -2.28103,-2.22359 -0.94359,-1.14051 -1.45231,-2.54359 -0.50051,-1.40308 -0.50051,-3.27385 0,-1.87076 0.50051,-3.27384 0.50872,-1.40308 1.45231,-2.54359 0.95179,-1.14051 2.28103,-2.22359 l 0.72205,0.75487 q -0.88616,0.78769 -1.55077,1.55077 -0.65641,0.75487 -1.09128,1.5918 -0.43488,0.83692 -0.65641,1.84615 -0.21334,1.00923 -0.21334,2.29743 z m 11.29847,-3.07692 q 1.82974,0 2.76513,1.22257 0.93538,1.22256 0.93538,3.27384 0,1.32103 -0.42666,2.33846 -0.42667,1.01744 -1.25539,1.6 -0.82872,0.57436 -2.03487,0.57436 -1.82974,0 -2.77333,-1.23077 -0.94359,-1.23077 -0.94359,-3.26564 0,-1.32923 0.42666,-2.34666 0.42667,-1.02565 1.25539,-1.5918 0.83692,-0.57436 2.05128,-0.57436 z m 0,1.1241 q -1.1159,0 -1.69026,0.82872 -0.56615,0.82872 -0.56615,2.56 0,1.71487 0.55795,2.54359 0.56615,0.82051 1.68205,0.82051 1.1159,0 1.67385,-0.82871 0.56615,-0.82872 0.56615,-2.5518 0,-1.72307 -0.55795,-2.54359 -0.55795,-0.82872 -1.66564,-0.82872 z m 9.84616,-1.1241 q 1.82975,0 2.76513,1.22257 0.93538,1.22256 0.93538,3.27384 0,1.32103 -0.42666,2.33846 -0.42667,1.01744 -1.25539,1.6 -0.82871,0.57436 -2.03487,0.57436 -1.82974,0 -2.77333,-1.23077 -0.94359,-1.23077 -0.94359,-3.26564 0,-1.32923 0.42666,-2.34666 0.42667,-1.02565 1.25539,-1.5918 0.83692,-0.57436 2.05128,-0.57436 z m 0,1.1241 q -1.1159,0 -1.69025,0.82872 -0.56616,0.82872 -0.56616,2.56 0,1.71487 0.55795,2.54359 0.56615,0.82051 1.68205,0.82051 1.1159,0 1.67385,-0.82871 0.56615,-0.82872 0.56615,-2.5518 0,-1.72307 -0.55795,-2.54359 -0.55795,-0.82872 -1.66564,-0.82872 z m 11.26565,1.95282 q 0,-1.2882 -0.22154,-2.29743 -0.21333,-1.00923 -0.6482,-1.84615 -0.43488,-0.83693 -1.09949,-1.5918 -0.65641,-0.76308 -1.54257,-1.55077 l 0.72206,-0.75487 q 1.32923,1.08308 2.27282,2.22359 0.95179,1.14051 1.4523,2.54359 0.50872,1.40308 0.50872,3.27384 0,1.87077 -0.50872,3.27385 -0.50051,1.40308 -1.4523,2.54359 -0.94359,1.14051 -2.27282,2.22359 l -0.72206,-0.75487 q 1.17334,-1.03385 1.95283,-2.05949 0.77948,-1.02564 1.16512,-2.26461 0.39385,-1.24718 0.39385,-2.96206 z m 4.34872,-6.99897 1.09949,-0.54154 7.02359,14.48205 -1.1159,0.49231 z m 9.80514,15.72103 v -1.20616 h 9.18974 v 1.20616 z m 8.86155,0 v -1.20616 h 10.17435 v 1.20616 z m 9.84616,0 v -1.20616 h 10.17436 v 1.20616 z m 9.84616,0 v -1.20616 h 10.17436 v 1.20616 z m 9.84616,0 v -1.20616 h 10.17436 v 1.20616 z m 9.84616,0 v -1.20616 h 10.17436 v 1.20616 z m 9.84616,0 v -1.20616 h 9.18974 v 1.20616 z m -104.65649,11.83594 q 0,1.71488 0.38564,2.96205 0.39385,1.23898 1.17334,2.26462 0.77948,1.02564 1.95282,2.05949 l -0.72205,0.75487 q -1.32924,-1.08308 -2.28103,-2.22359 -0.94359,-1.14051 -1.45231,-2.54359 -0.50051,-1.40308 -0.50051,-3.27385 0,-1.87077 0.50051,-3.27384 0.50872,-1.40308 1.45231,-2.54359 0.95179,-1.14052 2.28103,-2.22359 l 0.72205,0.75487 q -0.88616,0.78769 -1.55077,1.55077 -0.65641,0.75487 -1.09128,1.59179 -0.43488,0.83693 -0.65641,1.84616 -0.21334,1.00923 -0.21334,2.29743 z m 7.1795,8.72205 v -1.20615 h 9.18974 v 1.20615 z m 8.86154,0 v -1.20615 h 9.18975 v 1.20615 z m 16.36924,-8.72205 q 0,-1.2882 -0.22154,-2.29743 -0.21333,-1.00923 -0.6482,-1.84616 -0.43488,-0.83692 -1.09949,-1.59179 -0.65641,-0.76308 -1.54257,-1.55077 l 0.72206,-0.75487 q 1.32923,1.08307 2.27282,2.22359 0.95179,1.14051 1.4523,2.54359 0.50872,1.40307 0.50872,3.27384 0,1.87077 -0.50872,3.27385 -0.50051,1.40308 -1.4523,2.54359 -0.94359,1.14051 -2.27282,2.22359 l -0.72206,-0.75487 q 1.17334,-1.03385 1.95283,-2.05949 0.77948,-1.02564 1.16512,-2.26462 0.39385,-1.24717 0.39385,-2.96205 z m 4.34872,-6.99897 1.09949,-0.54154 7.02359,14.48205 -1.1159,0.49231 z m 84.26673,6.99897 q 0,-1.2882 -0.22154,-2.29743 -0.21333,-1.00923 -0.64821,-1.84616 -0.43487,-0.83692 -1.09948,-1.59179 -0.65641,-0.76308 -1.54257,-1.55077 l 0.72205,-0.75487 q 1.32923,1.08307 2.27282,2.22359 0.9518,1.14051 1.45231,2.54359 0.50872,1.40307 0.50872,3.27384 0,1.87077 -0.50872,3.27385 -0.50051,1.40308 -1.45231,2.54359 -0.94359,1.14051 -2.27282,2.22359 l -0.72205,-0.75487 q 1.17334,-1.03385 1.95282,-2.05949 0.77949,-1.02564 1.16513,-2.26462 0.39385,-1.24717 0.39385,-2.96205 z m 4.34872,-6.99897 1.09949,-0.54154 7.02359,14.48205 -1.1159,0.49231 z m 10.96206,14.43282 -1.1159,-0.49231 7.02359,-14.48205 1.09949,0.54154 z m 8.73026,-14.43282 1.09949,-0.54154 7.02359,14.48205 -1.1159,0.49231 z m -89.31289,27.55697 v 1.21436 h -7.09743 v 6.19487 h -1.23898 v -13.53846 h 1.23898 v 6.12923 z m -11.66769,-6.12923 v 13.53846 h -1.23897 v -13.53846 z m 11.3395,7.34359 v -1.21436 h 10.17435 v 1.21436 z m 9.84616,0 v -1.21436 h 10.17436 v 1.21436 z m 9.84616,0 v -1.21436 h 10.17436 v 1.21436 z m 17.81334,0 v -1.21436 h -7.96718 v 1.21436 z m 10.09231,4.52923 h -1.95282 l -1.1159,-6.34256 -1.21435,6.34256 h -1.90359 l -1.57539,-8.64 h 1.41128 l 1.09949,7.78667 1.37846,-6.68718 h 1.63282 l 1.30462,6.68718 1.09948,-7.78667 h 1.34565 z m 17.17335,-13.24307 v 14.91692 h -1.23077 v -14.91692 z m -70.89236,20.55799 v 14.91693 h -1.23077 V 164.2971 Z m -5.90769,0 v 14.91693 h -1.23077 V 164.2971 Z m 74.83082,0 v 14.91693 h -1.23077 V 164.2971 Z m -5.90769,0 v 14.91693 H 251.8066 V 164.2971 Z"
       id="text1"
       transform="scale(0.26458333)"
       aria-label=" ________________&#10;&lt; I use Arch btw &gt;&#10; ----------------&#10;        \   ^__^&#10;         \  (oo)\_______&#10;            (__)\       )\/\&#10;                ||----w |&#10;                ||     ||" />
  </g>
</svg>
